<svg xmlns="http://www.w3.org/2000/svg" xmlns:xlink="http://www.w3.org/1999/xlink" width="1400" zoomAndPan="magnify" viewBox="0 0 1050 187.499995" height="250" preserveAspectRatio="xMidYMid meet" version="1.0"><defs><clipPath id="e20c435c9c"><path d="M 1.394531 98.425781 L 1048.601562 98.425781 L 1048.601562 187 L 1.394531 187 Z M 1.394531 98.425781 " clip-rule="nonzero"/></clipPath><linearGradient x1="546.92999" gradientTransform="matrix(1.0497, 0, 0, 1.051041, -47.558031, 4.682703)" y1="89.189996" x2="546.92999" gradientUnits="userSpaceOnUse" y2="173.464769" id="c938f39c3e"><stop stop-opacity="1" stop-color="rgb(36.898804%, 37.998962%, 92.199707%)" offset="0"/><stop stop-opacity="1" stop-color="rgb(36.865234%, 37.940979%, 92.131042%)" offset="0.0625"/><stop stop-opacity="1" stop-color="rgb(36.740112%, 37.731934%, 91.882324%)" offset="0.09375"/><stop stop-opacity="1" stop-color="rgb(36.560059%, 37.426758%, 91.522217%)" offset="0.125"/><stop stop-opacity="1" stop-color="rgb(36.380005%, 37.123108%, 91.160583%)" offset="0.15625"/><stop stop-opacity="1" stop-color="rgb(36.199951%, 36.819458%, 90.800476%)" offset="0.1875"/><stop stop-opacity="1" stop-color="rgb(36.019897%, 36.514282%, 90.440369%)" offset="0.21875"/><stop stop-opacity="1" stop-color="rgb(35.839844%, 36.210632%, 90.080261%)" offset="0.25"/><stop stop-opacity="1" stop-color="rgb(35.65979%, 35.906982%, 89.718628%)" offset="0.28125"/><stop stop-opacity="1" stop-color="rgb(35.47821%, 35.601807%, 89.358521%)" offset="0.3125"/><stop stop-opacity="1" stop-color="rgb(35.342407%, 35.374451%, 89.086914%)" offset="0.328125"/><stop stop-opacity="1" stop-color="rgb(35.22644%, 35.160828%, 88.832092%)" offset="0.34375"/><stop stop-opacity="1" stop-color="rgb(35.084534%, 34.886169%, 88.504028%)" offset="0.359375"/><stop stop-opacity="1" stop-color="rgb(34.941101%, 34.613037%, 88.174438%)" offset="0.375"/><stop stop-opacity="1" stop-color="rgb(34.799194%, 34.338379%, 87.846375%)" offset="0.390625"/><stop stop-opacity="1" stop-color="rgb(34.657288%, 34.063721%, 87.516785%)" offset="0.40625"/><stop stop-opacity="1" stop-color="rgb(34.513855%, 33.790588%, 87.188721%)" offset="0.421875"/><stop stop-opacity="1" stop-color="rgb(34.371948%, 33.51593%, 86.859131%)" offset="0.4375"/><stop stop-opacity="1" stop-color="rgb(34.230042%, 33.242798%, 86.531067%)" offset="0.453125"/><stop stop-opacity="1" stop-color="rgb(34.086609%, 32.96814%, 86.201477%)" offset="0.46875"/><stop stop-opacity="1" stop-color="rgb(33.944702%, 32.693481%, 85.873413%)" offset="0.484375"/><stop stop-opacity="1" stop-color="rgb(33.80127%, 32.420349%, 85.543823%)" offset="0.5"/><stop stop-opacity="1" stop-color="rgb(33.659363%, 32.145691%, 85.215759%)" offset="0.515625"/><stop stop-opacity="1" stop-color="rgb(33.517456%, 31.872559%, 84.886169%)" offset="0.53125"/><stop stop-opacity="1" stop-color="rgb(33.374023%, 31.5979%, 84.558105%)" offset="0.546875"/><stop stop-opacity="1" stop-color="rgb(33.232117%, 31.323242%, 84.228516%)" offset="0.5625"/><stop stop-opacity="1" stop-color="rgb(33.088684%, 31.05011%, 83.900452%)" offset="0.578125"/><stop stop-opacity="1" stop-color="rgb(32.946777%, 30.775452%, 83.570862%)" offset="0.59375"/><stop stop-opacity="1" stop-color="rgb(32.804871%, 30.502319%, 83.242798%)" offset="0.609375"/><stop stop-opacity="1" stop-color="rgb(32.661438%, 30.227661%, 82.913208%)" offset="0.625"/><stop stop-opacity="1" stop-color="rgb(32.519531%, 29.953003%, 82.585144%)" offset="0.640625"/><stop stop-opacity="1" stop-color="rgb(32.376099%, 29.679871%, 82.255554%)" offset="0.65625"/><stop stop-opacity="1" stop-color="rgb(32.234192%, 29.405212%, 81.92749%)" offset="0.671875"/><stop stop-opacity="1" stop-color="rgb(32.092285%, 29.13208%, 81.5979%)" offset="0.6875"/><stop stop-opacity="1" stop-color="rgb(31.948853%, 28.857422%, 81.269836%)" offset="0.703125"/><stop stop-opacity="1" stop-color="rgb(31.806946%, 28.582764%, 80.940247%)" offset="0.71875"/><stop stop-opacity="1" stop-color="rgb(31.663513%, 28.309631%, 80.612183%)" offset="0.734375"/><stop stop-opacity="1" stop-color="rgb(31.521606%, 28.034973%, 80.282593%)" offset="0.75"/><stop stop-opacity="1" stop-color="rgb(31.364441%, 27.735901%, 79.924011%)" offset="0.765625"/><stop stop-opacity="1" stop-color="rgb(31.230164%, 27.485657%, 79.623413%)" offset="0.773438"/><stop stop-opacity="1" stop-color="rgb(31.134033%, 27.308655%, 79.412842%)" offset="0.78125"/><stop stop-opacity="1" stop-color="rgb(31.039429%, 27.131653%, 79.200745%)" offset="0.789062"/><stop stop-opacity="1" stop-color="rgb(30.943298%, 26.954651%, 78.988647%)" offset="0.796875"/><stop stop-opacity="1" stop-color="rgb(30.848694%, 26.777649%, 78.778076%)" offset="0.804688"/><stop stop-opacity="1" stop-color="rgb(30.752563%, 26.602173%, 78.565979%)" offset="0.8125"/><stop stop-opacity="1" stop-color="rgb(30.657959%, 26.425171%, 78.355408%)" offset="0.820312"/><stop stop-opacity="1" stop-color="rgb(30.561829%, 26.248169%, 78.143311%)" offset="0.828125"/><stop stop-opacity="1" stop-color="rgb(30.467224%, 26.071167%, 77.932739%)" offset="0.835938"/><stop stop-opacity="1" stop-color="rgb(30.371094%, 25.894165%, 77.720642%)" offset="0.84375"/><stop stop-opacity="1" stop-color="rgb(30.276489%, 25.717163%, 77.508545%)" offset="0.851562"/><stop stop-opacity="1" stop-color="rgb(30.181885%, 25.540161%, 77.297974%)" offset="0.859375"/><stop stop-opacity="1" stop-color="rgb(30.085754%, 25.364685%, 77.085876%)" offset="0.867188"/><stop stop-opacity="1" stop-color="rgb(29.99115%, 25.187683%, 76.875305%)" offset="0.875"/><stop stop-opacity="1" stop-color="rgb(29.89502%, 25.010681%, 76.663208%)" offset="0.882812"/><stop stop-opacity="1" stop-color="rgb(29.800415%, 24.833679%, 76.451111%)" offset="0.890625"/><stop stop-opacity="1" stop-color="rgb(29.704285%, 24.656677%, 76.24054%)" offset="0.898438"/><stop stop-opacity="1" stop-color="rgb(29.60968%, 24.479675%, 76.028442%)" offset="0.90625"/><stop stop-opacity="1" stop-color="rgb(29.51355%, 24.302673%, 75.817871%)" offset="0.914062"/><stop stop-opacity="1" stop-color="rgb(29.418945%, 24.125671%, 75.605774%)" offset="0.921875"/><stop stop-opacity="1" stop-color="rgb(29.322815%, 23.950195%, 75.395203%)" offset="0.929688"/><stop stop-opacity="1" stop-color="rgb(29.22821%, 23.773193%, 75.183105%)" offset="0.9375"/><stop stop-opacity="1" stop-color="rgb(29.13208%, 23.596191%, 74.971008%)" offset="0.945312"/><stop stop-opacity="1" stop-color="rgb(29.037476%, 23.419189%, 74.760437%)" offset="0.953125"/><stop stop-opacity="1" stop-color="rgb(28.941345%, 23.242188%, 74.54834%)" offset="0.960938"/><stop stop-opacity="1" stop-color="rgb(28.846741%, 23.065186%, 74.337769%)" offset="0.96875"/><stop stop-opacity="1" stop-color="rgb(28.75061%, 22.888184%, 74.125671%)" offset="0.976562"/><stop stop-opacity="1" stop-color="rgb(28.656006%, 22.712708%, 73.913574%)" offset="0.984375"/><stop stop-opacity="1" stop-color="rgb(28.559875%, 22.535706%, 73.703003%)" offset="0.992188"/><stop stop-opacity="1" stop-color="rgb(28.465271%, 22.358704%, 73.490906%)" offset="1"/></linearGradient><clipPath id="b2f0fd27b9"><path d="M 1.394531 37 L 150 37 L 150 105 L 1.394531 105 Z M 1.394531 37 " clip-rule="nonzero"/></clipPath><clipPath id="b5ec7c6cc3"><path d="M 103 4.488281 L 429 4.488281 L 429 109 L 103 109 Z M 103 4.488281 " clip-rule="nonzero"/></clipPath><clipPath id="0ff4d2a231"><path d="M 202 4.488281 L 238 4.488281 L 238 43 L 202 43 Z M 202 4.488281 " clip-rule="nonzero"/></clipPath><clipPath id="8719e6b4b9"><path d="M 203 4.488281 L 426 4.488281 L 426 99 L 203 99 Z M 203 4.488281 " clip-rule="nonzero"/></clipPath><clipPath id="2ae2c7b44f"><path d="M 962 42 L 1048.601562 42 L 1048.601562 102 L 962 102 Z M 962 42 " clip-rule="nonzero"/></clipPath><clipPath id="7de4f704ef"><path d="M 1.394531 112 L 1048.601562 112 L 1048.601562 187 L 1.394531 187 Z M 1.394531 112 " clip-rule="nonzero"/></clipPath><clipPath id="3b19607e4f"><path d="M 1.394531 113 L 1048.601562 113 L 1048.601562 126 L 1.394531 126 Z M 1.394531 113 " clip-rule="nonzero"/></clipPath><clipPath id="fd5eada8c6"><path d="M 1.394531 131 L 679 131 L 679 150 L 1.394531 150 Z M 1.394531 131 " clip-rule="nonzero"/></clipPath><clipPath id="a635cb0e6b"><path d="M 1.394531 151 L 1048.601562 151 L 1048.601562 187 L 1.394531 187 Z M 1.394531 151 " clip-rule="nonzero"/></clipPath><clipPath id="71c2646f74"><path d="M 634 140 L 1048.601562 140 L 1048.601562 149 L 634 149 Z M 634 140 " clip-rule="nonzero"/></clipPath></defs><g clip-path="url(#e20c435c9c)"><path fill="url(#c938f39c3e)" d="M 1.394531 98.425781 L 1.394531 187 L 1048.605469 187 L 1048.605469 98.425781 Z M 1.394531 98.425781 " fill-rule="nonzero"/></g><path fill="#4e58e0" d="M 821.667969 104.015625 C 683.011719 108 584.433594 105.140625 453.011719 106.117188 C 464.042969 104.910156 514.074219 103.566406 525.757812 103.101562 C 436.320312 102.355469 344.160156 107.074219 255.257812 98.402344 C 281.386719 99.929688 810.035156 93.789062 821.667969 104.015625 Z M 821.667969 104.015625 " fill-opacity="1" fill-rule="nonzero"/><g clip-path="url(#b2f0fd27b9)"><path fill="#4536d3" d="M 2.964844 88.050781 C 6.542969 80.558594 20.410156 46.554688 26.875 40.585938 L 36.972656 38.96875 L 55.355469 46.273438 L 62.292969 44.832031 L 65.167969 37.863281 L 68.085938 37.707031 L 72.285156 38.285156 L 81.375 38.808594 C 85.796875 44.90625 96.34375 58.664062 102.117188 64.085938 C 104.28125 64.527344 111.042969 65.957031 113.171875 66.191406 C 121.066406 73 139.140625 88.796875 147.121094 95.785156 L 149.964844 99.992188 L 148.347656 102.230469 C 130.597656 104.332031 94.65625 105.433594 76.589844 104.816406 C 65.703125 104.449219 26.203125 102.398438 16.0625 103.859375 C 12.105469 104.027344 1.914062 102.703125 -2.03125 102.1875 L -4.027344 101.136719 L 2.941406 88.050781 Z M 2.964844 88.050781 " fill-opacity="1" fill-rule="nonzero"/></g><path fill="#3f68fc" d="M 114.714844 90.195312 C 115.742188 92.257812 117.25 93.871094 119.238281 95.03125 L 120.699219 94.515625 L 120.699219 94.292969 C 121.507812 94.566406 122.335938 94.664062 123.1875 94.589844 L 125.757812 93.769531 C 125.882812 92.71875 123.226562 80.285156 125.203125 79.851562 C 121.640625 75.992188 117.847656 72.371094 113.832031 68.984375 L 113.066406 68.984375 L 111.292969 70.320312 C 111.113281 71.246094 111.292969 78.550781 110.035156 79.117188 C 110.863281 80.421875 116.089844 89.144531 117.035156 90.132812 C 116.6875 89.890625 115.679688 89.082031 115.34375 88.785156 L 114.453125 89.007812 C 114.285156 89.398438 114.714844 89.839844 114.714844 90.226562 Z M 114.714844 90.195312 " fill-opacity="1" fill-rule="nonzero"/><path fill="#3f68fc" d="M 68.160156 39.820312 C 70.648438 43.664062 77.019531 52.222656 79.707031 55.847656 C 80.757812 57.632812 81.964844 60.386719 83.265625 62.152344 L 86.414062 62.363281 L 89.898438 63.351562 L 95.273438 68.082031 L 102.621094 72.925781 L 104.195312 71.96875 L 100.871094 62.773438 C 95.703125 58.003906 85.355469 44.242188 81.367188 38.820312 L 72.277344 38.296875 C 71.414062 38.191406 67.6875 37.570312 66.871094 37.78125 L 68.128906 39.882812 Z M 68.160156 39.820312 " fill-opacity="1" fill-rule="nonzero"/><path fill="#3f68fc" d="M 36.972656 38.96875 L 34.769531 39.324219 C 35.054688 39.6875 35.40625 39.972656 35.820312 40.175781 C 37.300781 45.160156 41.066406 50.832031 44.21875 55.449219 L 46.066406 55.898438 L 46.453125 55.835938 C 48.113281 56.886719 50.503906 59.851562 51.449219 61.1875 C 54.125 64.644531 59.554688 71.582031 62.25 75.019531 L 70.449219 76.824219 C 72.109375 78.96875 74.125 80.695312 76.496094 82.007812 L 78.40625 81.335938 C 77.363281 79.210938 76.125 77.203125 74.691406 75.324219 C 73.640625 73.957031 72.078125 71.824219 70.207031 70.847656 L 69 71.152344 L 68.75 71.855469 C 67.847656 70.804688 65.296875 68.628906 64.707031 67.441406 C 64.554688 66.796875 64.351562 66.175781 64.089844 65.570312 C 61.421875 59.410156 58.597656 51.832031 54.640625 45.976562 L 36.984375 38.957031 Z M 36.972656 38.96875 " fill-opacity="1" fill-rule="nonzero"/><path fill="#3f68fc" d="M 99.199219 90.417969 L 102.621094 90.59375 C 103.542969 90.871094 104.476562 91.085938 105.425781 91.246094 L 106.714844 90.972656 C 106.78125 90.773438 107.273438 90.488281 107.515625 90.375 L 107.515625 89.535156 L 106.957031 89.09375 C 107.828125 88.648438 101.910156 81.429688 101.710938 80.914062 C 98.886719 77.066406 95.9375 71.949219 91.914062 68.566406 C 90.976562 68.464844 90.085938 68.210938 89.238281 67.796875 L 85.796875 68.261719 L 85.523438 70.867188 L 91.191406 80.15625 L 88.285156 77.371094 L 84.789062 76.070312 L 84.292969 76.59375 C 85.839844 79.214844 87.636719 81.648438 89.679688 83.898438 C 90.839844 85.214844 92.1875 86.296875 93.722656 87.148438 L 95.042969 86.683594 C 95.042969 86.507812 94.59375 84.960938 94.550781 84.835938 C 94.507812 84.707031 99 90.214844 99.148438 90.417969 Z M 99.199219 90.417969 " fill-opacity="1" fill-rule="nonzero"/><path fill="#3f68fc" d="M 39.472656 62.394531 L 36.804688 62.152344 C 38.371094 67.964844 44.5 77.730469 48.195312 83.175781 L 48.027344 77.476562 L 48.929688 76.121094 C 48.121094 74.683594 45.277344 69.46875 44.332031 68.175781 C 43.820312 67.125 44.816406 64.570312 45.195312 63.5625 C 44.144531 61.542969 41.855469 58.917969 40.996094 56.867188 L 36.796875 55.910156 C 37.121094 56.667969 39.503906 61.722656 39.472656 62.394531 Z M 39.472656 62.394531 " fill-opacity="1" fill-rule="nonzero"/><path fill="#3f68fc" d="M 79.800781 99.476562 L 82.480469 98.195312 L 82.847656 96.996094 L 80.570312 95.945312 C 80.023438 95.367188 76.433594 91.550781 76.023438 91.046875 L 73.460938 90.636719 L 72.789062 92.203125 C 73.839844 93.085938 73.261719 94.597656 73.492188 95.628906 C 72.894531 95.082031 71.6875 94.011719 71.078125 93.527344 L 70.941406 93.339844 L 68.6875 90.089844 C 64.992188 84.644531 59.804688 77.109375 56.226562 71.644531 L 55.101562 70.300781 L 50.902344 69.785156 L 53.925781 76.007812 L 52.78125 77.910156 C 55.773438 83.238281 61.464844 94.789062 66.1875 99.65625 C 70.730469 100.085938 75.269531 100.023438 79.800781 99.476562 Z M 79.800781 99.476562 " fill-opacity="1" fill-rule="nonzero"/><path fill="#73d9ff" d="M 131.941406 82.4375 L 112.972656 66.242188 L 113.128906 66.304688 C 110.9375 66.09375 104.132812 64.6875 101.910156 64.203125 C 94.5625 57.066406 86.75 46.554688 81.050781 38.851562 L 81.367188 38.988281 C 78.425781 38.839844 70.753906 38.433594 68.003906 37.863281 L 68.117188 37.863281 L 65.191406 38.011719 L 65.503906 37.855469 L 62.554688 44.9375 L 55.3125 46.417969 C 50.695312 44.558594 41.519531 40.859375 36.921875 38.976562 L 37.039062 38.976562 L 26.90625 40.535156 L 37.039062 38.914062 C 41.667969 40.710938 50.933594 44.328125 55.542969 46.144531 L 55.3125 46.144531 L 62.242188 44.675781 L 62.042969 44.8125 L 64.929688 37.664062 L 68.152344 37.496094 C 68.234375 37.496094 72.347656 38.0625 72.433594 38.074219 L 72.378906 38.074219 L 81.691406 38.601562 C 84.839844 42.679688 90.90625 50.761719 93.984375 54.839844 L 102.484375 64.015625 L 102.308594 63.917969 L 110.242188 65.558594 L 113.390625 66.03125 C 118.03125 70.089844 127.3125 78.320312 131.941406 82.4375 Z M 131.941406 82.4375 " fill-opacity="1" fill-rule="nonzero"/><path fill="#4536d3" d="M 767.996094 90.089844 L 745.585938 65.675781 L 736.640625 59.546875 L 723.40625 58.496094 L 699.398438 63.214844 L 690.296875 62.28125 L 686.488281 57.832031 C 683.359375 57.730469 680.238281 57.820312 677.125 58.105469 L 665.21875 58.445312 C 659.101562 62.59375 645.148438 71.464844 638.042969 74.714844 C 635.09375 75.027344 626.347656 75.890625 623.558594 76.039062 L 606.246094 83.394531 C 603.171875 84.886719 576.351562 95.546875 575.34375 97.773438 L 577.445312 99.222656 C 630.421875 102.765625 697.730469 99.320312 750.78125 100.273438 C 755.882812 100.390625 769.277344 99.539062 774.492188 99.222656 L 777.105469 98.570312 L 767.976562 90.164062 Z M 767.996094 90.089844 " fill-opacity="1" fill-rule="nonzero"/><path fill="#3f68fc" d="M 621.519531 91.46875 C 621.519531 91.234375 621.855469 91.015625 621.941406 90.804688 L 621.867188 90.679688 L 620.703125 90.53125 C 620.238281 90.710938 618.929688 91.246094 618.488281 91.402344 C 619.632812 90.824219 626.550781 85.160156 627.652344 84.308594 L 626.601562 83.554688 L 625.980469 78.65625 L 623.664062 77.792969 L 622.613281 77.792969 C 622.488281 77.792969 621.847656 78.046875 621.6875 78.097656 C 618.046875 79.695312 611.128906 82.953125 607.71875 84.78125 L 609.019531 85.71875 L 607.023438 93.769531 C 608.871094 94.105469 611.800781 94.578125 613.667969 94.117188 L 613.667969 94.253906 L 615.578125 94.578125 C 616.042969 94.429688 617.519531 93.957031 617.960938 93.832031 C 619.226562 93.171875 620.410156 92.386719 621.511719 91.476562 Z M 621.519531 91.46875 " fill-opacity="1" fill-rule="nonzero"/><path fill="#3f68fc" d="M 682.601562 59.054688 C 679.203125 61.628906 671.003906 67.03125 667.476562 69.375 C 666.058594 70.507812 664.410156 72.378906 662.804688 73.410156 C 659.882812 73.449219 656.976562 73.703125 654.09375 74.175781 C 648.667969 76.597656 643.109375 78.652344 637.414062 80.335938 L 635.3125 79.726562 L 639.671875 73.808594 C 646.042969 70.949219 659.707031 62.089844 665.230469 58.390625 C 669.890625 58.390625 679.707031 57.800781 684.230469 57.730469 Z M 682.601562 59.054688 " fill-opacity="1" fill-rule="nonzero"/><path fill="#3f68fc" d="M 723.425781 58.507812 L 726.324219 58.738281 C 725.867188 59 725.378906 59.179688 724.863281 59.285156 C 722.691406 62.773438 717.671875 66.335938 713.820312 69.113281 C 712.847656 69.265625 711.867188 69.351562 710.882812 69.363281 C 708.550781 70.234375 706.367188 71.382812 704.332031 72.8125 C 700.816406 75.027344 693.71875 79.496094 690.183594 81.703125 L 679.453125 82.871094 C 677.015625 84.367188 674.417969 85.480469 671.65625 86.210938 L 669.144531 85.78125 C 670.632812 84.316406 672.261719 83.027344 674.027344 81.914062 C 675.832031 80.644531 677.789062 79.679688 679.894531 79.023438 L 681.46875 79.222656 L 681.804688 79.675781 C 683.035156 78.84375 686.65625 77.699219 687.222656 76.519531 C 690.894531 72.085938 695.136719 66.777344 700.3125 63.003906 Z M 723.425781 58.507812 " fill-opacity="1" fill-rule="nonzero"/><path fill="#3f68fc" d="M 641.886719 91.605469 C 641.601562 91.605469 637.046875 91.6875 636.921875 91.792969 C 635.304688 92.101562 633.683594 92.160156 632.050781 91.972656 C 631.722656 91.777344 631.371094 91.648438 631 91.582031 L 631 91.035156 L 631.722656 90.753906 L 631.617188 90.257812 C 637.917969 86.304688 644.132812 80.695312 651.375 77.550781 C 652.558594 77.492188 653.726562 77.324219 654.878906 77.058594 L 659.382812 77.351562 L 659.75 79.023438 C 659.699219 79.023438 652.402344 84.980469 652.320312 85.003906 L 656.128906 83.214844 L 660.714844 82.375 L 661.355469 82.710938 C 659.140625 84.527344 656.761719 86.105469 654.230469 87.441406 C 652.566406 88.355469 650.816406 89.054688 648.980469 89.542969 L 647.25 89.25 L 647.898438 88.050781 L 647.449219 88.355469 L 641.863281 91.644531 Z M 641.886719 91.605469 " fill-opacity="1" fill-rule="nonzero"/><path fill="#3f68fc" d="M 720.160156 73.597656 L 723.644531 73.441406 C 722.054688 75.535156 720.355469 77.53125 718.542969 79.433594 L 708.730469 86.96875 L 708.949219 83.3125 L 707.765625 82.4375 C 708.8125 81.480469 712.59375 78.117188 713.800781 77.320312 L 714.0625 76.363281 L 712.65625 74.355469 C 714.15625 73 716.855469 71.488281 718.1875 70.046875 L 723.644531 69.425781 C 723.269531 69.867188 720.140625 73.117188 720.160156 73.597656 Z M 720.160156 73.597656 " fill-opacity="1" fill-rule="nonzero"/><path fill="#3f68fc" d="M 667.308594 97.449219 L 663.792969 96.617188 L 663.320312 95.851562 L 666.300781 95.1875 C 667.003906 94.820312 671.71875 92.359375 672.261719 92.035156 L 675.621094 91.773438 L 676.503906 92.824219 C 676.183594 92.945312 675.921875 93.144531 675.71875 93.421875 C 675.710938 93.957031 675.660156 94.492188 675.570312 95.019531 L 678.71875 93.644531 L 678.898438 93.527344 L 681.847656 91.425781 C 686.675781 87.925781 693.394531 83.113281 698.171875 79.570312 L 698.117188 79.570312 L 699.585938 78.71875 L 705.054688 78.382812 L 701.097656 82.386719 L 702.714844 83.648438 C 699.871094 86.632812 690.875 93.851562 687.347656 96.636719 L 685.144531 97.6875 C 679.191406 97.957031 673.246094 97.917969 667.296875 97.574219 Z M 667.308594 97.449219 " fill-opacity="1" fill-rule="nonzero"/><path fill="#73d9ff" d="M 598.984375 86.484375 L 623.820312 76.046875 L 623.609375 76.046875 C 626.445312 75.921875 635.375 74.996094 638.304688 74.722656 C 647.226562 70.519531 657.957031 63.542969 665.597656 58.410156 L 665.1875 58.496094 C 669 58.402344 679.054688 58.140625 682.699219 57.78125 L 682.601562 57.78125 L 686.433594 57.875 L 686.023438 57.769531 L 689.886719 62.332031 L 699.210938 63.269531 C 699.3125 63.292969 699.410156 63.292969 699.511719 63.269531 L 723.542969 58.546875 L 723.4375 58.546875 L 736.703125 59.546875 C 736.597656 59.546875 723.5 58.496094 723.394531 58.496094 C 717.367188 59.640625 705.222656 61.976562 699.199219 63.140625 L 699.503906 63.140625 L 690.421875 62.195312 L 690.6875 62.289062 L 686.894531 57.6875 C 683.617188 57.558594 680.339844 57.648438 677.070312 57.949219 L 664.875 58.285156 C 660.820312 60.902344 652.800781 66.09375 648.769531 68.734375 L 637.664062 74.652344 L 637.90625 74.585938 L 627.503906 75.636719 L 623.453125 75.941406 C 623.382812 75.921875 623.3125 75.921875 623.242188 75.941406 C 617.195312 78.539062 605.019531 83.835938 598.984375 86.484375 Z M 598.984375 86.484375 " fill-opacity="1" fill-rule="nonzero"/><g clip-path="url(#b5ec7c6cc3)"><path fill="#4536d3" d="M 428.050781 100.265625 C 417.226562 101.421875 401.316406 101 390.355469 100.863281 C 390.039062 102.765625 307.125 103.019531 303.652344 103.3125 L 300.082031 105.929688 C 258.546875 109.933594 208.316406 109.449219 166.421875 107.683594 C 164.640625 106.90625 158.613281 104.300781 156.976562 103.53125 C 143.433594 103.910156 116.425781 103.007812 103.011719 101.734375 L 108.132812 98.84375 L 107.964844 98.613281 L 113.214844 95 L 121.84375 91.5625 C 123.628906 89.460938 139.363281 76.089844 141.882812 73.863281 L 152.125 74.074219 L 153.691406 73.546875 C 156.765625 70.625 164.335938 59.976562 166.8125 56.644531 L 174.410156 56.917969 C 174.738281 56.710938 178.402344 54.574219 178.839844 54.300781 L 192.613281 37.339844 L 193.074219 36.761719 L 198.230469 35.804688 C 198.4375 36.066406 208.410156 48.648438 208.632812 48.910156 L 210.855469 47.691406 L 205.609375 31.925781 L 205.882812 29.949219 L 207.980469 27.375 C 207.320312 25.484375 205.417969 20.28125 204.695312 18.324219 L 205.851562 14.300781 L 202.5 8.433594 L 203.457031 4.660156 L 212.714844 14.910156 C 217.023438 18.640625 221.097656 22.613281 224.933594 26.828125 L 220.019531 13.070312 L 226.128906 15.351562 C 229.195312 18.25 238.410156 23.875 237.992188 27.730469 L 240.898438 27.730469 C 243.96875 30.183594 247.1875 32.421875 250.558594 34.449219 L 264.203125 44.675781 L 266.566406 43.625 L 269.074219 43.96875 L 268.832031 44.476562 L 284.523438 60.902344 L 287.675781 60.410156 L 284.179688 52.167969 L 284.566406 51.210938 L 287.484375 50.308594 L 298.171875 59.851562 L 307.082031 60.671875 L 307.144531 61.871094 L 316.414062 68.679688 L 319.730469 68.679688 L 320.152344 67.449219 L 322.019531 66.90625 L 331.207031 67.039062 C 330.21875 67.1875 348.902344 81.429688 349.238281 81.753906 L 349.238281 81.585938 L 351.789062 82.292969 L 354.296875 81.871094 L 361.984375 86.546875 L 364.398438 86.546875 L 367.703125 85.90625 L 372.363281 85.308594 C 373.289062 86.023438 388.289062 87.09375 389.894531 87.410156 L 390.640625 88.933594 L 415.296875 92.015625 C 419.222656 94.324219 423.988281 98.066406 428.050781 100.265625 Z M 428.050781 100.265625 " fill-opacity="1" fill-rule="nonzero"/></g><path fill="#3f68fc" d="M 291.96875 72.117188 L 284.515625 60.871094 L 268.820312 44.433594 L 269.0625 43.9375 L 266.554688 43.59375 L 264.191406 44.644531 L 250.546875 34.40625 C 247.179688 32.382812 243.960938 30.144531 240.890625 27.691406 L 238.789062 27.691406 L 237.738281 28.910156 C 237.5625 29.402344 252.53125 45.894531 253.265625 46.777344 L 269.808594 60.441406 L 258.15625 59.703125 L 239.167969 44.988281 C 237.488281 44.285156 230.488281 41.183594 228.777344 40.710938 L 253.664062 66.136719 L 258.292969 67.367188 C 260.488281 67.449219 270.523438 68.1875 272.496094 67.765625 C 277.402344 69.964844 282.402344 71.910156 287.507812 73.597656 L 292.21875 72.035156 Z M 291.96875 72.117188 " fill-opacity="1" fill-rule="nonzero"/><path fill="#3f68fc" d="M 416.691406 92.960938 L 415.222656 92.046875 C 415.035156 92.046875 396.402344 89.703125 395.59375 89.597656 L 366.769531 94.703125 L 386.640625 95.902344 L 412.789062 94.535156 L 413.835938 94.535156 L 415.9375 93.675781 L 415.832031 93.78125 Z M 416.691406 92.960938 " fill-opacity="1" fill-rule="nonzero"/><g clip-path="url(#0ff4d2a231)"><path fill="#3f68fc" d="M 237.246094 42.066406 L 224.703125 26.300781 L 224.882812 26.808594 C 221.066406 22.59375 217.011719 18.628906 212.714844 14.910156 L 203.445312 4.660156 L 202.5 8.425781 C 201.441406 11.316406 234.570312 39.28125 237.246094 42.066406 Z M 237.246094 42.066406 " fill-opacity="1" fill-rule="nonzero"/></g><path fill="#3f68fc" d="M 328.109375 74.15625 L 341.671875 85.382812 L 343.558594 88.722656 L 359.304688 89.40625 L 361.40625 88.648438 L 363.503906 89.703125 L 352.996094 91.910156 L 346.46875 92.390625 L 342.015625 95.882812 C 351.558594 94.347656 382.011719 90.878906 390.914062 89.292969 L 390.914062 89.007812 L 390.597656 89.007812 L 389.863281 87.484375 C 388.183594 87.167969 373.320312 86.117188 372.332031 85.382812 L 367.671875 85.980469 L 364.367188 86.632812 L 361.949219 86.578125 L 354.265625 81.902344 L 351.746094 82.324219 L 349.207031 81.617188 L 349.207031 81.785156 C 348.757812 81.3125 330.3125 67.355469 331.152344 67.074219 L 322.136719 66.9375 Z M 328.109375 74.15625 " fill-opacity="1" fill-rule="nonzero"/><path fill="#3f68fc" d="M 284.378906 51.527344 L 301.339844 73.316406 L 309.738281 75.585938 L 318.722656 77.027344 C 318.453125 76.835938 315.3125 71.078125 315.050781 70.644531 L 319.019531 72.484375 L 322.042969 75.050781 L 324.140625 74.367188 L 318.367188 68.636719 L 316.269531 68.636719 L 307 61.839844 L 306.9375 60.628906 L 298.035156 59.820312 L 287.339844 50.277344 L 284.421875 51.179688 Z M 284.378906 51.527344 " fill-opacity="1" fill-rule="nonzero"/><path fill="#3f68fc" d="M 311.007812 90.007812 L 316.910156 94.210938 L 325.136719 94.589844 L 342.3125 92.90625 L 335.171875 83.289062 L 332.128906 83.636719 L 323.28125 76.144531 L 321.179688 79.714844 L 315.816406 80.546875 L 297.214844 73.820312 L 295.03125 74.242188 C 296.648438 75.753906 303.554688 86.527344 304.859375 88.429688 Z M 311.007812 90.007812 " fill-opacity="1" fill-rule="nonzero"/><path fill="#3f68fc" d="M 226.078125 15.351562 L 219.96875 13.070312 C 219.140625 13.921875 230.558594 25.683594 231.273438 26.574219 L 233.761719 27.3125 L 235.703125 28.363281 L 237.644531 25.660156 C 235.703125 22.738281 229.132812 17.894531 226.078125 15.351562 Z M 226.078125 15.351562 " fill-opacity="1" fill-rule="nonzero"/><path fill="#3f68fc" d="M 215.613281 57.128906 C 211.582031 52.085938 202.261719 41.269531 198.367188 36.023438 C 197.558594 35.792969 193.863281 36.625 193.035156 36.761719 L 192.570312 37.339844 L 194.367188 41.488281 L 193.671875 44.011719 L 206.4375 57.539062 L 216.230469 65.253906 Z M 234.96875 59.652344 L 235.273438 57.339844 L 222.300781 39.964844 L 229.132812 54.15625 L 222.9375 51.683594 C 224.179688 53.554688 229.015625 62.195312 230.214844 64.234375 L 239.21875 67.082031 Z M 300.511719 100.925781 L 289.027344 97.101562 C 288.617188 96.34375 277.34375 86.453125 276.570312 85.664062 C 276.222656 85.664062 270.691406 86.328125 270.53125 86.421875 C 264.980469 82.996094 254.417969 75.554688 250.054688 71.488281 L 243.398438 71.488281 L 228.765625 67.082031 L 221.617188 60.988281 L 223.210938 67.628906 L 219.527344 69.648438 L 228.765625 80.515625 L 233.164062 81.566406 L 244.878906 95.410156 L 242.570312 96.226562 L 242.234375 96.734375 L 247.1875 103.710938 L 250.996094 105.53125 L 269.472656 106.148438 L 276.496094 107.90625 C 281.921875 107.402344 294.8125 106.265625 300.132812 105.929688 L 302.328125 104.320312 Z M 223.339844 100.390625 L 217.953125 88.828125 L 207.835938 77.269531 C 207.570312 77.089844 200.863281 68.953125 200.308594 69.425781 C 200.214844 71.421875 199.351562 82.355469 199.667969 84.078125 L 216 101.0625 C 217.164062 101.621094 222.425781 101.285156 223.789062 101.273438 Z M 235.1875 97.667969 L 232.554688 97.300781 L 223.105469 86.589844 C 223.601562 90.929688 228.460938 100.746094 230.71875 104.898438 L 240.847656 104.898438 Z M 180.070312 68.34375 L 180.65625 64.738281 L 175.304688 56.636719 L 175.050781 56.5 L 174.371094 56.910156 L 166.769531 56.636719 L 166.539062 56.941406 L 176.40625 71.234375 L 182.703125 75.734375 Z M 198.839844 103.027344 L 194.746094 99.875 L 188.738281 90.5 C 185.402344 89.574219 177.65625 83.425781 175.242188 81.640625 L 175.984375 86.632812 L 184.171875 101.085938 C 184.015625 101.566406 182.832031 102.417969 182.328125 102.765625 C 182.765625 103.144531 199.457031 105.371094 200.496094 105.550781 Z M 196.90625 61.28125 L 189.558594 51.820312 C 189.253906 53.820312 194.511719 62.792969 195.5 64.78125 C 197.292969 66.09375 199.1875 67.234375 201.1875 68.195312 Z M 196.90625 61.28125 " fill-opacity="1" fill-rule="nonzero"/><g clip-path="url(#8719e6b4b9)"><path fill="#73d9ff" d="M 424.710938 98.644531 L 424.808594 98.644531 C 424.90625 98.484375 425.023438 98.332031 425.152344 98.195312 L 425.007812 98.195312 C 422.371094 96.28125 418.363281 93.589844 415.414062 91.886719 L 390.871094 88.808594 C 390.871094 88.734375 390.15625 87.316406 390.136719 87.285156 L 377.539062 85.992188 C 375.808594 85.726562 373.8125 85.875 372.289062 85.152344 L 367.441406 85.78125 L 364.199219 86.410156 L 361.992188 86.410156 L 354.257812 81.714844 L 354.046875 81.714844 L 351.675781 82.113281 L 349.25 81.449219 L 349.039062 81.386719 C 348.304688 80.695312 330.828125 67.523438 331.300781 66.871094 L 321.851562 66.726562 L 319.753906 67.347656 C 319.753906 67.347656 319.375 68.460938 319.363281 68.503906 L 316.457031 68.503906 L 307.355469 61.828125 C 307.355469 61.734375 307.28125 60.585938 307.28125 60.535156 L 298.246094 59.714844 L 287.476562 50.109375 L 284.21875 51.160156 L 283.78125 52.210938 L 287.234375 60.335938 L 284.597656 60.753906 L 269.042969 44.496094 L 269.324219 43.90625 L 266.449219 43.507812 L 264.183594 44.558594 L 250.621094 34.4375 C 247.226562 32.40625 243.988281 30.152344 240.898438 27.679688 L 238.074219 27.679688 C 238.074219 27.628906 237.824219 25.765625 237.769531 25.734375 C 236.5625 23.484375 228.503906 17.265625 226.160156 15.359375 C 226.109375 15.308594 220.050781 13.101562 219.988281 13.070312 L 219.683594 12.953125 C 219.769531 13.207031 224.503906 26.269531 224.585938 26.523438 C 220.855469 22.433594 216.894531 18.578125 212.703125 14.960938 L 203.402344 4.726562 L 212.632812 14.992188 C 217.019531 18.832031 221.164062 22.917969 225.070312 27.25 L 224.921875 26.859375 L 220.136719 13.3125 L 225.898438 15.476562 C 229.046875 18.398438 238.148438 24 237.6875 27.910156 L 240.699219 27.910156 C 243.742188 30.355469 246.9375 32.582031 250.285156 34.59375 L 264.097656 44.9375 L 264.285156 44.855469 L 266.554688 43.800781 L 268.652344 44.105469 L 268.464844 44.507812 C 268.632812 44.695312 284.125 60.945312 284.292969 61.125 L 287.863281 60.546875 C 287.777344 60.367188 284.410156 52.378906 284.324219 52.191406 L 284.671875 51.347656 L 287.242188 50.5625 C 287.316406 50.625 297.742188 60.019531 297.855469 60.019531 L 306.632812 60.828125 L 306.683594 61.945312 L 316.132812 68.878906 L 319.878906 68.878906 L 320.320312 67.597656 C 321.242188 66.789062 329.515625 67.304688 330.816406 67.25 C 331.164062 68.566406 348.378906 81.378906 349.5625 82.523438 L 349.480469 81.988281 L 351.453125 82.535156 L 351.707031 82.535156 L 354.003906 82.144531 L 361.636719 86.789062 C 361.792969 86.789062 364.164062 86.863281 364.332031 86.789062 C 366.160156 86.371094 370.171875 85.792969 372.101562 85.582031 C 373.601562 86.285156 375.609375 86.105469 377.351562 86.390625 L 389.410156 87.640625 C 389.410156 87.703125 390.136719 89.144531 390.144531 89.15625 L 414.929688 92.234375 C 418.078125 94.03125 421.953125 96.722656 424.710938 98.644531 Z M 424.710938 98.644531 " fill-opacity="1" fill-rule="nonzero"/></g><path fill="#73d9ff" d="M 885.027344 57.632812 L 883.011719 59.988281 L 877.605469 62.847656 L 874.308594 66.316406 L 858.238281 74.839844 L 857.523438 74.335938 L 856.117188 74.167969 L 852.308594 76.269531 L 847.761719 80.367188 L 845.203125 80.683594 L 848.214844 75.1875 C 848.214844 75.070312 847.730469 74.28125 847.6875 74.1875 C 847.648438 74.09375 840.792969 76.046875 840.71875 76.070312 L 835.238281 75.816406 C 835.144531 75.816406 830.808594 76.867188 830.738281 76.953125 L 807.515625 88.3125 L 764.480469 93.011719 C 764.480469 93.011719 741.679688 98.265625 741.636719 98.265625 C 741.695312 98.378906 741.746094 98.496094 741.785156 98.613281 C 741.785156 98.613281 764.617188 93.359375 764.648438 93.359375 C 764.679688 93.359375 807.683594 88.648438 807.683594 88.585938 C 810.300781 87.484375 832.417969 75.878906 835.269531 76.152344 L 840.75 76.40625 L 847.4375 74.566406 L 847.816406 75.261719 L 844.738281 80.957031 L 847.890625 80.558594 L 852.453125 76.351562 L 856.140625 74.25 L 857.367188 74.398438 L 858.175781 74.964844 L 874.363281 66.292969 L 877.636719 62.816406 L 883.011719 59.945312 L 885.007812 57.582031 L 891.117188 56.941406 Z M 885.027344 57.632812 " fill-opacity="1" fill-rule="nonzero"/><path fill="#4536d3" d="M 986.269531 85.582031 L 985.304688 85.582031 L 982.996094 83.605469 C 978.535156 82.679688 978.554688 82.15625 976.109375 79.726562 L 974.273438 72.917969 L 966.136719 71.140625 L 961.824219 72.863281 L 959.292969 72.433594 L 959.082031 71.867188 L 955.460938 63.542969 C 950.589844 62.617188 950.339844 62.878906 947.0625 60.144531 L 946.296875 49.636719 L 943.664062 48.257812 L 941.164062 45.421875 L 936.355469 50.265625 L 930.855469 53.417969 L 911.152344 69.425781 L 910.304688 70.40625 L 903.566406 68.523438 L 896.886719 68.039062 C 895.734375 65.863281 892.070312 59.023438 891.136719 56.929688 L 885.015625 57.5625 L 883.011719 59.925781 L 877.617188 62.785156 L 874.332031 66.261719 L 858.207031 74.859375 L 857.453125 74.324219 L 856.128906 74.167969 L 852.382812 76.269531 L 847.824219 80.398438 L 844.949219 80.746094 L 848.015625 75.125 L 847.554688 74.28125 L 840.730469 76.144531 C 835.796875 75.871094 835.480469 75.660156 830.839844 76.996094 L 807.558594 88.34375 L 764.523438 93.066406 L 731.980469 100.589844 C 737 100.726562 788.664062 101.726562 791.71875 102.03125 L 796.96875 103.910156 C 807.371094 104.785156 853.863281 104.960938 862.699219 107.191406 L 930.015625 108.011719 C 934.972656 107.152344 939.871094 106.042969 944.714844 104.6875 C 972.152344 103.710938 1012.871094 103.070312 1039.710938 99.863281 C 1035.238281 98.332031 1028.394531 95.957031 1023.820312 94.609375 C 1015.160156 91.667969 1001.523438 86.757812 991.730469 85.949219 L 991.058594 86.128906 L 986.324219 85.527344 Z M 986.269531 85.582031 " fill-opacity="1" fill-rule="nonzero"/><path fill="#3f68fc" d="M 942.539062 66.242188 L 940.964844 67.671875 L 938.71875 67.535156 L 938.332031 67.304688 L 936.230469 70.269531 L 930.59375 69.828125 L 930.5 67.871094 C 932.597656 67.019531 942.265625 51.222656 943.558594 49.488281 C 943.167969 48.773438 941.867188 45.96875 941.121094 45.421875 L 936.316406 50.265625 L 930.816406 53.417969 L 911.113281 69.425781 C 909.433594 72.433594 904.214844 79.035156 901.917969 81.964844 L 902.964844 84.699219 L 910.523438 86.085938 L 924.714844 78.015625 L 927.5625 79.347656 L 924.714844 84.835938 L 938.269531 85.160156 Z M 942.539062 66.242188 " fill-opacity="1" fill-rule="nonzero"/><path fill="#3f68fc" d="M 764.542969 93.148438 L 731.980469 100.675781 L 771.574219 101.535156 L 785.726562 96.007812 L 814.226562 89.164062 L 818.160156 89.449219 L 834.726562 79.96875 L 839.0625 78.898438 L 841.023438 76.152344 L 840.738281 76.226562 L 835.261719 75.976562 L 830.851562 77.078125 L 807.570312 88.429688 Z M 764.542969 93.148438 " fill-opacity="1" fill-rule="nonzero"/><path fill="#3f68fc" d="M 854.902344 81.429688 L 853.851562 79.191406 L 855.949219 74.355469 C 855.226562 73.988281 844.632812 85.726562 844.140625 86.085938 L 839.460938 86.707031 L 827.691406 96.722656 L 821.667969 98.425781 L 814.214844 104.605469 L 828.742188 105.152344 L 841.339844 104.175781 L 833.992188 101.808594 L 840.488281 93.476562 L 850.871094 89.511719 Z M 854.902344 81.429688 " fill-opacity="1" fill-rule="nonzero"/><path fill="#3f68fc" d="M 882.6875 71.601562 L 885.015625 68.386719 L 885.015625 65.917969 C 885.65625 65.003906 887.976562 60.144531 889.507812 59.726562 L 889.992188 59.632812 L 891.042969 57.023438 L 885.027344 57.644531 L 883.023438 60.007812 L 877.625 62.867188 L 874.339844 66.347656 L 861.21875 73.347656 L 858.878906 76.753906 L 856.980469 78.289062 L 857.230469 79.726562 L 858.34375 81.3125 L 855.101562 88.671875 L 855.339844 88.839844 L 862.070312 88.0625 Z M 882.6875 71.601562 " fill-opacity="1" fill-rule="nonzero"/><path fill="#3f68fc" d="M 890.445312 83.867188 L 892.480469 81.933594 L 889.835938 81.808594 L 893.308594 75.375 L 893.78125 71.246094 C 892.757812 71.167969 891.730469 71.167969 890.707031 71.246094 L 885.980469 75.511719 L 881.4375 76.300781 L 872.378906 85.761719 L 872.789062 91.183594 L 867.957031 101.273438 L 873.039062 101.199219 Z M 890.445312 83.867188 " fill-opacity="1" fill-rule="nonzero"/><g clip-path="url(#2ae2c7b44f)"><path fill="#4536d3" d="M 1048.949219 49.425781 C 1048.949219 63.332031 1048.234375 85.371094 1048.078125 99.402344 L 1046.796875 100.285156 L 1034.074219 101.589844 C 1018.140625 100.8125 984.097656 98.550781 968.636719 96.605469 C 966.253906 94.925781 964.027344 84.109375 962.335938 82.144531 L 978.617188 70.445312 L 996.546875 73.429688 C 1005.996094 66.453125 1026.621094 49.65625 1035.753906 42.195312 L 1042.679688 42.195312 Z M 1048.949219 49.425781 " fill-opacity="1" fill-rule="nonzero"/></g><path fill="#3f68fc" d="M 1040.71875 42.171875 C 1038.25 47.933594 1032.824219 59.390625 1029.824219 65.023438 L 1009.574219 79.90625 C 1007.707031 78.6875 1004.042969 76.039062 1002.308594 74.714844 L 1000.871094 70.078125 C 1007.601562 65.117188 1029.078125 47.597656 1035.773438 42.140625 Z M 1040.71875 42.171875 " fill-opacity="1" fill-rule="nonzero"/><path fill="#73d9ff" d="M 1042.703125 42.171875 L 1035.773438 42.277344 L 1035.910156 42.277344 C 1024.605469 51.738281 1013.257812 61.25 1000.914062 70.109375 C 1012.355469 60.933594 1024.007812 51.191406 1035.691406 42.109375 Z M 1042.703125 42.171875 " fill-opacity="1" fill-rule="nonzero"/><path fill="#73d9ff" d="M 943.671875 48.300781 L 941.050781 45.503906 L 941.300781 45.503906 C 938.496094 48.960938 935.105469 51.679688 931.121094 53.660156 C 924.695312 58.917969 917.863281 64.425781 911.175781 69.5625 L 910.273438 70.519531 C 913.199219 67.261719 917.253906 64.445312 920.695312 61.40625 C 925.378906 57.613281 930.144531 53.15625 936.117188 50.203125 C 937.816406 48.5625 939.476562 46.902344 941.207031 45.273438 L 941.324219 45.421875 Z M 943.671875 48.300781 " fill-opacity="1" fill-rule="nonzero"/><path fill="#422dcc" d="M 560.535156 152.324219 C 556.273438 157.828125 526.671875 156.777344 517.359375 157.304688 C 512.71875 157.484375 497.5625 156.105469 497.089844 152.585938 C 504.082031 147.035156 554.425781 146.730469 560.535156 152.324219 Z M 560.535156 152.324219 " fill-opacity="1" fill-rule="nonzero"/><path fill="#525ceb" d="M 560.535156 152.324219 C 556.28125 157.828125 526.660156 156.777344 517.359375 157.304688 C 512.730469 157.484375 497.539062 156.105469 497.089844 152.585938 C 517.203125 148.128906 540.222656 148.582031 560.535156 152.324219 Z M 560.535156 152.324219 " fill-opacity="1" fill-rule="nonzero"/><path fill="#422dcc" d="M 261.671875 165.324219 C 262.449219 169.464844 308.34375 170.769531 308.121094 165.523438 C 301.363281 161.371094 267.972656 161.128906 261.671875 165.324219 Z M 261.671875 165.324219 " fill-opacity="1" fill-rule="nonzero"/><path fill="#525ceb" d="M 261.671875 165.324219 C 262.566406 169.527344 308.25 170.777344 308.121094 165.511719 C 293.417969 162.253906 276.558594 162.589844 261.671875 165.324219 Z M 261.671875 165.324219 " fill-opacity="1" fill-rule="nonzero"/><path fill="#422dcc" d="M 858.511719 153.867188 C 856.917969 156.589844 829.675781 157.429688 828.792969 153.992188 C 834.261719 151.269531 853.292969 151.136719 858.511719 153.867188 Z M 858.511719 153.867188 " fill-opacity="1" fill-rule="nonzero"/><path fill="#3f68fc" d="M 858.511719 153.867188 C 856.925781 156.589844 829.65625 157.429688 828.792969 153.992188 C 838.691406 152.015625 848.597656 151.972656 858.511719 153.867188 Z M 858.511719 153.867188 " fill-opacity="1" fill-rule="nonzero"/><path fill="#422dcc" d="M 735.894531 129.410156 C 737.566406 132.382812 769.371094 133.289062 770.230469 129.535156 C 764.070312 126.570312 741.765625 126.402344 735.894531 129.410156 Z M 735.894531 129.410156 " fill-opacity="1" fill-rule="nonzero"/><path fill="#7161ff" d="M 735.894531 129.410156 C 737.554688 132.375 769.390625 133.296875 770.230469 129.535156 C 759.324219 127.203125 746.917969 127.488281 735.894531 129.410156 Z M 735.894531 129.410156 " fill-opacity="1" fill-rule="nonzero"/><path fill="#422dcc" d="M 799.863281 135.945312 C 801.167969 138.492188 823.148438 139.277344 823.839844 136.0625 C 819.199219 133.507812 804.261719 133.394531 799.863281 135.945312 Z M 799.863281 135.945312 " fill-opacity="1" fill-rule="nonzero"/><path fill="#7161ff" d="M 799.863281 135.945312 C 801.167969 138.492188 823.15625 139.277344 823.839844 136.0625 C 819.898438 135.144531 815.90625 134.675781 811.859375 134.65625 C 807.8125 134.636719 803.816406 135.066406 799.863281 135.945312 Z M 799.863281 135.945312 " fill-opacity="1" fill-rule="nonzero"/><path fill="#422dcc" d="M 308.015625 123.953125 C 309.320312 126.5 331.300781 127.285156 331.992188 124.070312 C 327.351562 121.507812 312.414062 121.390625 308.015625 123.953125 Z M 308.015625 123.953125 " fill-opacity="1" fill-rule="nonzero"/><path fill="#7161ff" d="M 308.015625 123.953125 C 309.320312 126.5 331.308594 127.285156 331.992188 124.070312 C 328.050781 123.152344 324.058594 122.683594 320.011719 122.664062 C 315.964844 122.644531 311.96875 123.074219 308.015625 123.953125 Z M 308.015625 123.953125 " fill-opacity="1" fill-rule="nonzero"/><path fill="#422dcc" d="M 225.742188 126.027344 C 227.042969 128.570312 249.023438 129.355469 249.707031 126.140625 C 245.078125 123.578125 230.183594 123.472656 225.742188 126.027344 Z M 225.742188 126.027344 " fill-opacity="1" fill-rule="nonzero"/><path fill="#7161ff" d="M 225.742188 126.027344 C 227.03125 128.570312 249.035156 129.355469 249.707031 126.140625 C 245.765625 125.222656 241.773438 124.753906 237.730469 124.734375 C 233.6875 124.714844 229.691406 125.144531 225.742188 126.027344 Z M 225.742188 126.027344 " fill-opacity="1" fill-rule="nonzero"/><path fill="#422dcc" d="M 176.816406 139.71875 C 177.863281 143.230469 207.9375 144.3125 208.179688 139.886719 C 203.277344 136.367188 181.328125 136.21875 176.816406 139.71875 Z M 176.816406 139.71875 " fill-opacity="1" fill-rule="nonzero"/><path fill="#7161ff" d="M 176.816406 139.71875 C 177.863281 143.230469 207.949219 144.3125 208.179688 139.878906 C 198.34375 137.15625 186.734375 137.441406 176.816406 139.71875 Z M 176.816406 139.71875 " fill-opacity="1" fill-rule="nonzero"/><path fill="#422dcc" d="M 570.757812 112.097656 C 572.394531 113.9375 589.652344 114.515625 590.703125 112.183594 C 585.871094 110.3125 575.535156 110.238281 570.757812 112.097656 Z M 570.757812 112.097656 " fill-opacity="1" fill-rule="nonzero"/><path fill="#4e58e0" d="M 570.757812 112.097656 C 572.382812 113.9375 589.652344 114.515625 590.703125 112.183594 C 584.058594 110.875 577.410156 110.84375 570.757812 112.097656 Z M 570.757812 112.097656 " fill-opacity="1" fill-rule="nonzero"/><path fill="#422dcc" d="M 455.082031 110.53125 C 456.855469 112.636719 479.851562 113.308594 481.019531 110.628906 C 475.160156 108.484375 460.769531 108.378906 455.082031 110.53125 Z M 455.082031 110.53125 " fill-opacity="1" fill-rule="nonzero"/><path fill="#4e58e0" d="M 455.082031 110.53125 C 456.84375 112.636719 479.863281 113.308594 481.019531 110.628906 C 472.378906 109.097656 463.730469 109.066406 455.082031 110.53125 Z M 455.082031 110.53125 " fill-opacity="1" fill-rule="nonzero"/><path fill="#422dcc" d="M 553.824219 144.746094 C 555.601562 146.847656 578.589844 147.519531 579.753906 144.839844 C 573.90625 142.683594 559.515625 142.578125 553.824219 144.746094 Z M 553.824219 144.746094 " fill-opacity="1" fill-rule="nonzero"/><path fill="#4e58e0" d="M 553.824219 144.746094 C 555.578125 146.847656 578.609375 147.519531 579.753906 144.839844 C 571.117188 143.308594 562.472656 143.277344 553.824219 144.746094 Z M 553.824219 144.746094 " fill-opacity="1" fill-rule="nonzero"/><path fill="#422dcc" d="M 441.171875 112.6875 C 442.757812 113.9375 454.945312 114.335938 456.183594 112.75 C 453.722656 112.101562 451.222656 111.773438 448.679688 111.761719 C 446.140625 111.75 443.636719 112.058594 441.171875 112.6875 Z M 441.171875 112.6875 " fill-opacity="1" fill-rule="nonzero"/><path fill="#4e58e0" d="M 441.171875 112.6875 C 442.914062 113.949219 454.816406 114.347656 456.183594 112.75 C 451.183594 111.867188 446.179688 111.847656 441.171875 112.6875 Z M 441.171875 112.6875 " fill-opacity="1" fill-rule="nonzero"/><path fill="#422dcc" d="M 641.328125 166.386719 C 642.914062 167.636719 655.101562 168.023438 656.328125 166.4375 C 653.871094 165.789062 651.371094 165.460938 648.832031 165.453125 C 646.292969 165.445312 643.789062 165.753906 641.328125 166.386719 Z M 641.328125 166.386719 " fill-opacity="1" fill-rule="nonzero"/><path fill="#4e58e0" d="M 641.328125 166.386719 C 643.070312 167.636719 654.976562 168.046875 656.328125 166.4375 C 651.332031 165.550781 646.332031 165.535156 641.328125 166.386719 Z M 641.328125 166.386719 " fill-opacity="1" fill-rule="nonzero"/><path fill="#422dcc" d="M 308.4375 160.238281 C 310.023438 161.488281 322.210938 161.875 323.4375 160.289062 C 320.980469 159.640625 318.480469 159.3125 315.941406 159.304688 C 313.398438 159.296875 310.898438 159.605469 308.4375 160.238281 Z M 308.4375 160.238281 " fill-opacity="1" fill-rule="nonzero"/><path fill="#4e58e0" d="M 308.4375 160.238281 C 310.179688 161.488281 322.082031 161.898438 323.4375 160.289062 C 318.441406 159.402344 313.441406 159.386719 308.4375 160.238281 Z M 308.4375 160.238281 " fill-opacity="1" fill-rule="nonzero"/><g clip-path="url(#7de4f704ef)"><path fill="#4000c3" d="M 220.472656 120.191406 L 269.453125 118.226562 C 204.683594 116.585938 76.453125 121.96875 11.507812 119.078125 L -3.25 122.882812 L -47.558594 121.148438 L -10.703125 118.414062 L 11.84375 114.117188 L 64.328125 117.742188 L 157.941406 115.117188 C 217.300781 115.894531 334.429688 112.855469 393.726562 115.566406 L 286.5625 118.648438 C 358.539062 120.179688 450.230469 117.828125 521.695312 120.109375 C 589.304688 118.710938 676.828125 120.726562 744.535156 118.519531 L 666.574219 114.789062 C 713.085938 113.589844 801.796875 115.167969 849.222656 114.789062 L 844.71875 114.105469 C 910.953125 114.527344 1000.011719 111.238281 1065.710938 113.726562 L 1065.710938 113.539062 L 1066.5 118.109375 C 971.21875 117.734375 840.8125 119.972656 745.890625 117.492188 C 792.96875 120.558594 857.921875 122.558594 905.128906 122.199219 C 925.074219 124.660156 977.390625 125.152344 998.132812 125.238281 C 894.035156 127.117188 760.019531 121.117188 655.582031 123.238281 C 519.1875 124.070312 350.246094 126.773438 214.207031 120.453125 C 215.695312 120.285156 218.875 120.171875 220.472656 120.191406 Z M 10.792969 133.058594 L 6.0625 132.5625 L -9.402344 138.53125 C 37.835938 139.039062 135.855469 137.953125 182.292969 134.8125 C 208.976562 135.683594 279.917969 138.121094 305.226562 142.011719 C 260.257812 143.484375 197.894531 144.578125 152.957031 144.113281 C 236.933594 150.421875 362.433594 150.546875 447.15625 146.824219 L 338.089844 141.695312 C 404.832031 138.292969 509.550781 140.257812 575.734375 138.386719 C 614.570312 134.800781 676.421875 134.464844 715.921875 135.042969 C 600.707031 129.789062 450.15625 138.511719 334.070312 134.402344 C 289.722656 133.351562 181.464844 129.09375 137.09375 132.015625 C 101.300781 134.496094 46.988281 134.042969 10.828125 133.066406 Z M 1055.183594 139.363281 L 1055.066406 139.195312 C 919.972656 140.097656 752.039062 142.285156 616.671875 147.183594 C 656.894531 150.125 763.261719 147.8125 804.894531 146.667969 C 829.464844 147.941406 880.386719 146.804688 905.128906 145.363281 L 993.429688 145.648438 L 993.136719 145.785156 L 1067.109375 148.171875 L 1055.246094 139.320312 Z M -6.230469 150.15625 C -4.855469 151.386719 -2.03125 154.128906 -1.519531 155.613281 C -1.570312 165.722656 -3.859375 187.039062 -5.382812 197.203125 L -0.46875 201.984375 C 332.664062 205.640625 737.050781 215.785156 1071.347656 202.898438 L 1074.351562 200.21875 L 1081.917969 153.792969 L 912.214844 156.84375 L 929.953125 160.132812 C 857.136719 165.207031 751.664062 167.867188 679.074219 164.894531 L 722.4375 171.199219 C 640.027344 175.015625 468.695312 177.421875 387.585938 171.199219 C 325.515625 171.609375 183.941406 171.125 123.300781 167.425781 C 149.429688 166.089844 192.96875 163.148438 217.773438 157.316406 C 180.511719 156.265625 126.082031 156.570312 89.292969 153.785156 C 66.039062 153.71875 16.558594 152.425781 -6.179688 150.167969 Z M -6.230469 150.15625 " fill-opacity="1" fill-rule="nonzero"/></g><g clip-path="url(#3b19607e4f)"><path fill="#4b32ad" d="M 348.09375 115.285156 C 313.285156 115.535156 191.257812 116.628906 158.9375 116.230469 L 65.378906 118.867188 L 12.894531 115.210938 L -9.675781 119.5 L -37.28125 121.546875 L -3.25 122.882812 L 11.507812 119.078125 C 76.507812 121.96875 204.652344 116.585938 269.453125 118.226562 L 245.445312 119.195312 L 270.480469 119.320312 L 230.707031 120.894531 C 361.164062 126.960938 524.621094 123.765625 655.5 123.199219 C 744.074219 121.570312 867.707031 125.300781 955.964844 125.785156 C 944.691406 126.160156 917.515625 124.226562 906.074219 123.238281 C 858.921875 123.609375 793.859375 121.601562 746.84375 118.542969 L 774.808594 119.003906 L 745.804688 117.449219 C 840.539062 119.929688 971.28125 117.691406 1066.414062 118.070312 L 1065.847656 114.777344 C 1000.621094 112.371094 911.40625 115.597656 845.683594 115.199219 L 850.1875 115.882812 C 809.480469 116.144531 721.589844 115.125 681.929688 115.558594 L 744.453125 118.542969 L 729.019531 118.847656 L 745.492188 119.625 C 677.742188 121.84375 590.304688 119.8125 522.660156 121.210938 C 451.394531 118.941406 359.304688 121.296875 287.527344 119.761719 L 315.742188 118.953125 L 286.5 118.667969 L 374.347656 116.144531 Z M 348.09375 115.285156 " fill-opacity="1" fill-rule="nonzero"/></g><g clip-path="url(#fd5eada8c6)"><path fill="#4b32ad" d="M 100.398438 138.34375 C 159.464844 134.214844 246.96875 134.464844 305.257812 142.011719 L 297.582031 142.222656 L 306.285156 143.09375 C 269.652344 144.230469 213.039062 145.53125 176.457031 145.269531 C 249.496094 150.808594 358.886719 150.210938 432.699219 147.195312 L 339.121094 142.789062 L 353.324219 142.410156 L 338.089844 141.695312 C 404.832031 138.292969 509.550781 140.257812 575.734375 138.386719 C 605.125 136.0625 648.632812 134.277344 678.308594 134.90625 C 635.535156 133.917969 571.535156 133.730469 528.84375 136.179688 C 425.28125 137.628906 273.011719 134.078125 170.085938 131.679688 C 119.964844 134.351562 57.476562 136.566406 7.121094 133.65625 L -5.476562 138.523438 Z M 100.398438 138.34375 " fill-opacity="1" fill-rule="nonzero"/></g><g clip-path="url(#a635cb0e6b)"><path fill="#4b32ad" d="M -0.46875 201.984375 C 332.664062 205.640625 737.050781 215.785156 1071.347656 202.898438 L 1074.351562 200.21875 L 1081.699219 154.898438 L 917.621094 157.863281 L 929.914062 160.132812 L 926.121094 160.332031 L 930.941406 161.226562 C 860.90625 166.015625 757.332031 169.042969 687.578125 166.132812 L 722.386719 171.179688 L 716.9375 171.324219 L 723.425781 172.269531 C 641.003906 176.074219 469.683594 178.492188 388.570312 172.269531 C 326.492188 172.671875 184.929688 172.1875 124.289062 168.496094 L 135.183594 167.835938 L 123.25 167.40625 C 147.390625 166.269531 190.261719 163.09375 213.386719 158.28125 C 177.394531 157.316406 125.851562 157.578125 90.265625 154.855469 C 67.046875 154.792969 17.597656 153.5 -5.097656 151.25 C -3.460938 152.742188 -1.289062 154.90625 -0.5 156.683594 C -0.5 166.796875 -2.832031 188.046875 -4.351562 198.210938 Z M -0.46875 201.984375 " fill-opacity="1" fill-rule="nonzero"/></g><g clip-path="url(#71c2646f74)"><path fill="#4b32ad" d="M 1056.296875 140.402344 L 1056.179688 140.246094 C 925.609375 141.171875 765.097656 143.09375 634.390625 147.699219 C 664.832031 150.21875 772.582031 147.308594 804.976562 146.648438 C 829.550781 147.917969 880.472656 146.785156 905.210938 145.34375 L 993.511719 145.628906 L 993.21875 145.765625 L 1066.699219 148.140625 Z M 1056.296875 140.402344 " fill-opacity="1" fill-rule="nonzero"/></g><path fill="#4536d3" d="M 832.574219 103.28125 C 851.636719 104.394531 891.011719 105.675781 909.945312 105.195312 L 912.226562 91.6875 L 869.367188 94.683594 Z M 832.574219 103.28125 " fill-opacity="1" fill-rule="nonzero"/><path fill="#1e2792" d="M 194.753906 122.820312 L 162.519531 124.46875 L 162.726562 124.46875 L 152.988281 129.011719 L 122.839844 128.402344 L 120.949219 126.066406 C 118.273438 125.53125 106.96875 124.722656 104.007812 124.480469 L 102.117188 123.230469 L 109.65625 117.3125 L 116.792969 114.800781 L 119.710938 107.054688 L 128.8125 102.785156 L 131.542969 90.332031 L 131.910156 90.332031 L 144.726562 91.742188 C 149.660156 96.585938 160.304688 107.304688 164.671875 112.257812 L 165.972656 112.394531 L 182.945312 114.167969 Z M 194.753906 122.820312 " fill-opacity="1" fill-rule="nonzero"/><path fill="#000000" d="M 123.941406 90.929688 L 123.648438 90.921875 L 123.636719 90.792969 L 123.847656 90.785156 Z M 123.941406 90.929688 " fill-opacity="1" fill-rule="nonzero"/><path fill="#353bab" d="M 165.929688 112.488281 L 165.226562 112.875 C 163.128906 112.742188 153.429688 113.316406 151.140625 113.421875 L 144.558594 103.628906 L 144.558594 103.941406 L 146.550781 111.984375 L 143.246094 111.867188 L 131.898438 90.417969 L 144.714844 91.824219 C 149.605469 96.636719 160.324219 107.421875 164.660156 112.339844 Z M 165.929688 112.488281 " fill-opacity="1" fill-rule="nonzero"/><path fill="#353bab" d="M 194.753906 122.820312 L 180.363281 123.554688 C 179.199219 122.199219 176.039062 118.300781 174.066406 117.429688 L 167.765625 117.3125 L 161.46875 118.027344 L 164.367188 124.332031 L 162.476562 124.429688 L 162.6875 124.429688 L 153.132812 128.882812 L 149.46875 125.867188 L 146.320312 124.910156 C 145.859375 122.480469 145.640625 120.027344 145.660156 117.554688 L 142.972656 115.453125 L 160.597656 113.78125 L 160.199219 111.761719 L 164.398438 112.097656 L 164.566406 112.277344 L 165.867188 112.414062 L 182.945312 114.167969 Z M 194.753906 122.820312 " fill-opacity="1" fill-rule="nonzero"/><path fill="#353bab" d="M 145.15625 116.902344 C 139.792969 115 134.050781 116.816406 128.433594 117.3125 C 134.125 116.449219 139.570312 113.519531 145.304688 115.789062 C 145.441406 116.367188 145.15625 116.324219 145.15625 116.902344 Z M 145.15625 116.902344 " fill-opacity="1" fill-rule="nonzero"/><path fill="#353bab" d="M 119.964844 126.929688 L 85.46875 128.421875 C 85.46875 128.421875 79.9375 126.152344 79.9375 126.152344 L 54.691406 125.277344 L 63.488281 119.972656 L 71.886719 118.855469 L 91.515625 107.609375 L 92.199219 107.222656 L 94.296875 112.109375 L 100.828125 113.757812 L 102.570312 118.574219 L 114.789062 119.195312 L 114.222656 119.339844 Z M 119.964844 126.929688 " fill-opacity="1" fill-rule="nonzero"/><path fill="#1e2792" d="M 82.804688 120.339844 C 85.238281 120.550781 87.886719 120.738281 90.332031 120.949219 C 86.132812 121.242188 81.859375 121.589844 77.734375 121.882812 C 76.726562 123.324219 75.605469 124.667969 74.375 125.921875 L 54.746094 125.246094 L 63.542969 119.941406 L 71.941406 118.824219 L 91.515625 107.609375 C 91.820312 109.355469 92.1875 111.101562 92.441406 112.867188 C 89.207031 115.316406 86.015625 117.878906 82.804688 120.339844 Z M 82.804688 120.339844 " fill-opacity="1" fill-rule="nonzero"/><path fill="#1e2792" d="M 104.3125 121.191406 C 102.949219 121.421875 101.574219 121.800781 100.207031 122.019531 C 99.871094 123.933594 99.6875 125.859375 99.664062 127.800781 L 85.46875 128.421875 C 87.871094 126.109375 90.355469 123.835938 92.921875 121.601562 C 96.609375 121.441406 100.617188 121.335938 104.3125 121.191406 Z M 104.3125 121.191406 " fill-opacity="1" fill-rule="nonzero"/><path fill="#65aaff" d="M 143.6875 92.519531 C 148.578125 97.300781 159.527344 108.042969 164.230469 112.742188 L 144.863281 115.304688 L 166.222656 113.539062 L 182.652344 114.894531 C 184.164062 115.882812 193.203125 122.179688 194.753906 122.808594 L 182.945312 114.167969 L 165.929688 112.488281 L 164.628906 112.351562 C 160.324219 107.433594 149.605469 96.648438 144.683594 91.835938 L 131.898438 90.417969 L 131.53125 90.417969 C 134.335938 91.046875 140.707031 92.085938 143.6875 92.519531 Z M 143.6875 92.519531 " fill-opacity="1" fill-rule="nonzero"/><path fill="#65aaff" d="M 92.199219 107.234375 C 93.089844 108.796875 93.890625 110.40625 94.601562 112.058594 L 94.371094 111.890625 L 101.070312 113.539062 C 101.132812 113.695312 102.800781 118.320312 102.851562 118.480469 L 102.527344 118.289062 L 114.390625 119.066406 C 116.394531 121.5625 118.246094 124.171875 119.941406 126.886719 C 117.761719 124.507812 115.714844 122.011719 113.8125 119.402344 L 114.105469 119.539062 L 102.214844 118.792969 L 102.148438 118.617188 L 100.417969 113.8125 L 100.636719 113.980469 L 93.929688 112.277344 C 93.261719 110.628906 92.683594 108.945312 92.199219 107.234375 Z M 92.199219 107.234375 " fill-opacity="1" fill-rule="nonzero"/><path fill="#65aaff" d="M 113.707031 119.308594 L 101.730469 121.285156 L 114.273438 119.910156 Z M 113.707031 119.308594 " fill-opacity="1" fill-rule="nonzero"/><path fill="#1e2792" d="M 402.332031 112.289062 C 396.464844 112.53125 388.769531 112.75 382.902344 111.59375 C 368.269531 112.488281 353.511719 112.570312 338.816406 112.300781 C 340.863281 109.003906 343.492188 106.261719 346.699219 104.078125 C 352.285156 103.828125 356.996094 103.839844 362.632812 103.585938 C 363.941406 101.855469 365.484375 100.375 367.261719 99.140625 C 371.304688 99.140625 374.769531 99.140625 378.808594 99.085938 C 383.457031 101.683594 387.796875 104.71875 391.835938 108.1875 C 394.101562 108.1875 396.035156 108.316406 398.324219 108.324219 C 399.773438 109.660156 400.894531 110.953125 402.332031 112.289062 Z M 402.332031 112.289062 " fill-opacity="1" fill-rule="nonzero"/><path fill="#353bab" d="M 382.902344 111.59375 C 380.742188 111.6875 378.566406 111.847656 376.382812 111.941406 C 372.6875 110.195312 368.394531 110.394531 364.082031 110.261719 C 362.820312 109.039062 361.667969 107.484375 360.398438 106.265625 C 355.945312 105.644531 351.527344 104.929688 347.160156 104.089844 C 352.621094 103.859375 357.164062 103.871094 362.675781 103.617188 C 366.128906 103.703125 369.300781 106.894531 371.777344 108.429688 C 373.957031 108.613281 376.140625 108.648438 378.328125 108.546875 C 379.878906 109.511719 381.339844 110.628906 382.902344 111.59375 Z M 382.902344 111.59375 " fill-opacity="1" fill-rule="nonzero"/><path fill="#65aaff" d="M 347.160156 104.078125 C 352.25 103.722656 357.65625 103.617188 362.726562 103.386719 C 366.925781 103.691406 369.121094 106.539062 372.019531 108.273438 L 371.816406 108.210938 C 374.011719 108.40625 376.210938 108.464844 378.410156 108.390625 C 379.996094 109.441406 381.371094 110.542969 382.902344 111.542969 C 381.265625 110.605469 379.753906 109.546875 378.179688 108.589844 L 378.335938 108.589844 C 376.097656 108.734375 373.855469 108.714844 371.617188 108.535156 C 368.742188 106.886719 366.683594 104.132812 362.621094 103.742188 L 362.695312 103.742188 C 358.246094 104.078125 351.632812 104.078125 347.160156 104.078125 Z M 347.160156 104.078125 " fill-opacity="1" fill-rule="nonzero"/><path fill="#353bab" d="M 402.332031 112.289062 C 399.75 112.289062 396.203125 112.5 392.886719 112.507812 C 391.835938 111.457031 391.519531 109.808594 389.96875 109 C 387.152344 108.765625 384.570312 108.515625 381.75 108.285156 C 382.964844 108.167969 384.539062 108.074219 385.757812 107.957031 C 382.757812 105.636719 379.828125 103.238281 376.835938 100.917969 L 367.15625 99.265625 L 367.285156 99.171875 C 371.324219 99.171875 374.789062 99.171875 378.832031 99.117188 C 383.46875 101.707031 387.804688 104.730469 391.835938 108.1875 C 394.101562 108.1875 396.035156 108.316406 398.324219 108.324219 C 399.773438 109.660156 400.894531 110.953125 402.332031 112.289062 Z M 402.332031 112.289062 " fill-opacity="1" fill-rule="nonzero"/><path fill="#353bab" d="M 365.332031 110.261719 C 360.753906 110.316406 356.183594 110.210938 351.621094 109.945312 C 353.804688 110.261719 365.8125 108.664062 365.332031 110.261719 Z M 365.332031 110.261719 " fill-opacity="1" fill-rule="nonzero"/><path fill="#65aaff" d="M 367.304688 99.171875 C 371.136719 98.910156 375.136719 98.867188 379 98.867188 C 383.6875 101.480469 388.070312 104.539062 392.140625 108.042969 L 391.847656 107.949219 C 394.09375 107.949219 396.308594 108.074219 398.523438 108.085938 C 399.980469 109.375 401.050781 110.910156 402.332031 112.289062 C 400.832031 111.078125 399.371094 109.753906 398.027344 108.472656 L 398.324219 108.566406 C 396.085938 108.566406 393.871094 108.441406 391.65625 108.429688 C 387.617188 104.949219 383.273438 101.902344 378.621094 99.296875 L 378.863281 99.359375 C 375.039062 99.402344 371.09375 99.390625 367.304688 99.171875 Z M 367.304688 99.171875 " fill-opacity="1" fill-rule="nonzero"/><path fill="#1e2792" d="M 738.804688 159.394531 C 744.660156 159.648438 752.355469 159.867188 758.222656 158.710938 C 772.917969 159.605469 787.613281 159.679688 802.3125 159.417969 C 800.25 156.121094 797.605469 153.390625 794.375 151.230469 C 788.789062 150.976562 784.078125 150.988281 778.449219 150.734375 C 777.140625 149.007812 775.597656 147.527344 773.820312 146.289062 C 769.769531 146.289062 766.304688 146.289062 762.273438 146.226562 C 757.644531 148.816406 753.316406 151.84375 749.289062 155.308594 C 747.011719 155.308594 745.089844 155.433594 742.804688 155.445312 C 741.386719 156.777344 740.242188 158.070312 738.804688 159.394531 Z M 738.804688 159.394531 " fill-opacity="1" fill-rule="nonzero"/><path fill="#353bab" d="M 758.179688 158.734375 C 760.355469 158.828125 762.515625 158.984375 764.699219 159.070312 C 768.394531 157.335938 772.699219 157.535156 777.003906 157.398438 C 778.261719 156.167969 779.417969 154.625 780.6875 153.40625 C 785.136719 152.785156 789.558594 152.070312 793.921875 151.230469 C 788.464844 151 783.917969 151 778.417969 150.757812 C 774.957031 150.839844 771.785156 154.035156 769.308594 155.570312 C 767.128906 155.75 764.949219 155.789062 762.769531 155.6875 C 761.246094 156.632812 759.789062 157.734375 758.179688 158.734375 Z M 758.179688 158.734375 " fill-opacity="1" fill-rule="nonzero"/><path fill="#65aaff" d="M 793.964844 151.207031 C 788.875 150.851562 783.46875 150.746094 778.398438 150.515625 C 774.199219 150.808594 772.015625 153.667969 769.109375 155.402344 L 769.308594 155.339844 C 767.117188 155.53125 764.925781 155.589844 762.726562 155.519531 C 761.132812 156.570312 759.753906 157.671875 758.222656 158.671875 C 759.871094 157.734375 761.371094 156.671875 762.945312 155.71875 L 762.789062 155.71875 C 765.027344 155.875 767.269531 155.875 769.507812 155.71875 C 772.394531 154.066406 774.441406 151.3125 778.515625 150.925781 L 778.429688 150.925781 C 782.839844 151.15625 789.492188 151.15625 793.964844 151.207031 Z M 793.964844 151.207031 " fill-opacity="1" fill-rule="nonzero"/><path fill="#353bab" d="M 738.804688 159.394531 C 741.375 159.394531 744.921875 159.617188 748.25 159.628906 C 749.300781 158.574219 749.617188 156.925781 751.167969 156.117188 C 753.984375 155.886719 756.554688 155.632812 759.378906 155.390625 C 758.160156 155.285156 756.597656 155.191406 755.367188 155.078125 C 758.371094 152.753906 761.308594 150.355469 764.300781 148.023438 L 773.980469 146.382812 L 773.851562 146.289062 C 769.800781 146.289062 766.335938 146.289062 762.304688 146.226562 C 757.675781 148.816406 753.347656 151.84375 749.320312 155.308594 C 747.042969 155.308594 745.121094 155.433594 742.835938 155.445312 C 741.386719 156.777344 740.242188 158.070312 738.804688 159.394531 Z M 738.804688 159.394531 " fill-opacity="1" fill-rule="nonzero"/><path fill="#353bab" d="M 775.796875 157.378906 C 780.371094 157.429688 784.960938 157.378906 789.515625 157.0625 C 787.320312 157.378906 775.3125 155.78125 775.796875 157.378906 Z M 775.796875 157.378906 " fill-opacity="1" fill-rule="nonzero"/><path fill="#65aaff" d="M 773.832031 146.289062 C 770 146.027344 765.992188 145.972656 762.136719 145.984375 C 757.445312 148.59375 753.0625 151.652344 748.996094 155.160156 L 749.28125 155.066406 C 747.035156 155.066406 744.820312 155.191406 742.605469 155.203125 C 741.144531 156.496094 740.085938 158.03125 738.804688 159.40625 C 740.292969 158.207031 741.765625 156.875 743.109375 155.601562 L 742.804688 155.695312 C 745.050781 155.695312 747.265625 155.570312 749.46875 155.558594 C 753.511719 152.082031 757.859375 149.039062 762.507812 146.425781 L 762.265625 146.488281 C 766.085938 146.519531 770.03125 146.511719 773.832031 146.289062 Z M 773.832031 146.289062 " fill-opacity="1" fill-rule="nonzero"/><path fill="#1e2792" d="M 473.710938 129.367188 C 470.5625 129.621094 464.453125 129.757812 460.980469 129.796875 C 454.882812 132.488281 443.199219 131.753906 436.554688 129.796875 C 438.777344 127.59375 441.296875 125.8125 444.121094 124.460938 C 448.027344 124.257812 451.660156 124.269531 455.53125 123.933594 C 457.777344 122.492188 460.382812 122.484375 463.414062 122.703125 C 466.910156 124.816406 471.183594 126.601562 473.710938 129.367188 Z M 473.710938 129.367188 " fill-opacity="1" fill-rule="nonzero"/><path fill="#353bab" d="M 461.460938 129.796875 L 460.949219 129.796875 C 460.949219 129.796875 458.605469 130.746094 457.335938 131.195312 C 454.933594 130.714844 451.617188 126.761719 451.121094 126.425781 C 451.121094 126.425781 446.757812 125.175781 443.847656 124.566406 L 444.089844 124.4375 C 458.921875 124.121094 453.347656 122.0625 461.460938 129.796875 Z M 461.460938 129.796875 " fill-opacity="1" fill-rule="nonzero"/><path fill="#353bab" d="M 464.507812 129.734375 C 464.527344 129.0625 464.65625 128.410156 464.894531 127.78125 C 463.960938 126.601562 463.203125 125.511719 462.269531 124.34375 C 460.414062 123.953125 458.511719 123.648438 456.59375 123.417969 C 458.375 122.15625 461 122.695312 463.382812 122.683594 C 466.910156 124.785156 471.183594 126.601562 473.679688 129.367188 C 471.488281 129.558594 467.414062 129.671875 464.507812 129.734375 Z M 464.507812 129.734375 " fill-opacity="1" fill-rule="nonzero"/><path fill="#65aaff" d="M 444.089844 124.4375 C 447.804688 124.113281 451.816406 124.058594 455.5 123.703125 L 455.375 123.703125 C 457.527344 122.199219 460.621094 122.21875 463.507812 122.429688 C 467.027344 124.597656 471.414062 126.5 473.679688 129.355469 C 471.023438 126.707031 466.667969 124.964844 463.183594 122.839844 L 463.425781 122.902344 C 459.972656 122.695312 458.261719 122.683594 455.519531 124.121094 L 455.65625 124.121094 C 451.898438 124.460938 447.859375 124.34375 444.089844 124.4375 Z M 444.089844 124.4375 " fill-opacity="1" fill-rule="nonzero"/><path fill="#1e2792" d="M 285.269531 157.828125 C 282.121094 158.082031 276 158.21875 272.527344 158.261719 C 266.429688 160.953125 254.746094 160.214844 248.101562 158.261719 C 250.324219 156.046875 252.847656 154.269531 255.679688 152.921875 C 259.585938 152.722656 263.207031 152.730469 267.078125 152.394531 C 269.324219 150.957031 271.9375 150.945312 274.960938 151.167969 C 278.46875 153.277344 282.773438 155.066406 285.269531 157.828125 Z M 285.269531 157.828125 " fill-opacity="1" fill-rule="nonzero"/><path fill="#353bab" d="M 273.042969 158.261719 L 272.527344 158.261719 C 272.527344 158.261719 270.1875 159.207031 268.925781 159.660156 C 266.511719 159.175781 263.207031 155.222656 262.703125 154.886719 C 262.703125 154.886719 258.335938 153.636719 255.425781 153.027344 L 255.679688 152.902344 C 270.511719 152.585938 264.925781 150.523438 273.042969 158.261719 Z M 273.042969 158.261719 " fill-opacity="1" fill-rule="nonzero"/><path fill="#353bab" d="M 276.097656 158.199219 C 276.105469 157.523438 276.234375 156.871094 276.472656 156.242188 C 275.550781 155.066406 274.785156 153.972656 273.851562 152.804688 C 271.992188 152.417969 270.089844 152.113281 268.171875 151.882812 C 269.964844 150.621094 272.578125 151.15625 274.960938 151.144531 C 278.488281 153.246094 282.773438 155.066406 285.269531 157.828125 C 283.066406 158.019531 279.035156 158.132812 276.097656 158.199219 Z M 276.097656 158.199219 " fill-opacity="1" fill-rule="nonzero"/><path fill="#65aaff" d="M 255.679688 152.902344 C 259.386719 152.574219 263.394531 152.523438 267.078125 152.164062 L 266.921875 152.164062 C 269.019531 150.660156 272.171875 150.683594 275.066406 150.894531 C 278.574219 153.058594 282.960938 154.960938 285.238281 157.820312 C 282.574219 155.171875 278.214844 153.425781 274.742188 151.304688 L 274.984375 151.355469 C 271.519531 151.15625 269.808594 151.144531 267.070312 152.585938 L 267.207031 152.585938 C 263.488281 152.921875 259.4375 152.804688 255.679688 152.902344 Z M 255.679688 152.902344 " fill-opacity="1" fill-rule="nonzero"/><path fill="#1e2792" d="M 664.945312 118.144531 L 631.355469 119.507812 L 625.972656 117.40625 L 601.386719 116.597656 L 609.953125 111.730469 L 618.160156 110.679688 L 637.253906 100.371094 L 637.917969 100 L 639.902344 104.5 L 646.261719 106.023438 L 647.960938 110.449219 L 659.867188 111.015625 L 659.300781 111.144531 Z M 664.945312 118.144531 " fill-opacity="1" fill-rule="nonzero"/><path fill="#353bab" d="M 628.765625 112.078125 C 631.136719 112.277344 633.71875 112.445312 636.113281 112.644531 C 632.039062 112.910156 627.871094 113.234375 623.796875 113.496094 C 622.8125 114.832031 621.722656 116.070312 620.523438 117.21875 L 601.410156 116.585938 L 609.972656 111.722656 L 618.183594 110.667969 L 637.277344 100.359375 C 637.570312 101.957031 637.925781 103.511719 638.167969 105.171875 C 635.007812 107.453125 631.890625 109.816406 628.765625 112.078125 Z M 628.765625 112.078125 " fill-opacity="1" fill-rule="nonzero"/><path fill="#353bab" d="M 649.714844 112.867188 C 648.382812 113.078125 647.039062 113.421875 645.707031 113.632812 C 645.378906 115.390625 645.203125 117.164062 645.179688 118.953125 L 631.355469 119.507812 C 633.707031 117.40625 636.128906 115.304688 638.621094 113.203125 C 642.210938 113.097656 646.105469 113.003906 649.714844 112.867188 Z M 649.714844 112.867188 " fill-opacity="1" fill-rule="nonzero"/><path fill="#65aaff" d="M 601.386719 116.585938 C 608.085938 112.539062 608.609375 111.195312 618.097656 110.460938 L 617.941406 110.511719 C 624.5 106.9375 631.136719 103.40625 637.886719 100 C 631.503906 103.722656 624.964844 107.359375 618.359375 110.859375 C 615.609375 111.269531 612.765625 111.550781 609.964844 111.910156 L 610.101562 111.910156 C 607.246094 113.453125 604.347656 115.042969 601.386719 116.585938 Z M 601.386719 116.585938 " fill-opacity="1" fill-rule="nonzero"/><path fill="#65aaff" d="M 631.335938 119.5 C 637.496094 113.453125 637.214844 112.835938 647.960938 110.460938 C 644.949219 111.511719 641.863281 112.507812 638.757812 113.445312 L 638.894531 113.371094 C 636.519531 115.441406 633.960938 117.566406 631.335938 119.5 Z M 631.335938 119.5 " fill-opacity="1" fill-rule="nonzero"/><path fill="#65aaff" d="M 609.597656 111.921875 L 621.679688 112.867188 L 610.75 111.617188 Z M 609.597656 111.921875 " fill-opacity="1" fill-rule="nonzero"/><path fill="#1e2792" d="M 769.65625 113.183594 C 762.589844 113.675781 757.277344 113.855469 750.203125 114.335938 L 745.898438 112.761719 C 738.644531 112.507812 729.964844 111.710938 722.804688 111.910156 C 726.191406 109.621094 729.777344 107.710938 733.566406 106.183594 C 737.039062 106.183594 740.714844 106.097656 744.1875 106.183594 C 746.351562 104.078125 747.515625 102.429688 749.667969 100.359375 C 752.464844 100.074219 755.261719 100.03125 758.066406 100.222656 C 759.03125 101.347656 759.914062 102.660156 760.847656 103.753906 C 761.539062 103.753906 762.316406 103.53125 762.945312 103.554688 C 764.941406 106.75 767.859375 110.089844 769.65625 113.183594 Z M 769.65625 113.183594 " fill-opacity="1" fill-rule="nonzero"/><path fill="#353bab" d="M 751.398438 106.769531 C 752.542969 106.855469 753.867188 107.191406 755 107.265625 C 750.191406 107.589844 745.132812 108.050781 740.304688 108.316406 L 735.855469 112.214844 C 731.371094 111.972656 726.835938 111.773438 722.773438 111.867188 C 726.171875 109.589844 729.769531 107.695312 733.566406 106.183594 C 737.039062 106.183594 740.714844 106.097656 744.1875 106.183594 C 746.351562 104.078125 747.515625 102.429688 749.667969 100.359375 C 752.464844 100.074219 755.261719 100.03125 758.066406 100.222656 C 758.203125 100.371094 758.328125 100.515625 758.453125 100.675781 C 756.953125 101.125 755.503906 101.578125 753.886719 101.988281 C 752.933594 103.449219 752.292969 105.234375 751.398438 106.769531 Z M 751.398438 106.769531 " fill-opacity="1" fill-rule="nonzero"/><path fill="#65aaff" d="M 722.796875 111.910156 C 726.046875 109.367188 729.601562 107.363281 733.460938 105.898438 C 737.019531 105.898438 740.597656 105.824219 744.199219 105.898438 L 743.882812 106.003906 C 745.867188 104.109375 747.433594 102.007812 749.457031 100.085938 C 752.320312 99.78125 755.179688 99.8125 758.035156 100.179688 C 755.253906 100.164062 752.476562 100.289062 749.710938 100.558594 L 749.972656 100.453125 C 747.988281 102.355469 746.425781 104.457031 744.386719 106.390625 C 740.789062 106.339844 737.1875 106.464844 733.554688 106.390625 L 733.765625 106.390625 C 730 108.011719 726.34375 109.851562 722.796875 111.910156 Z M 722.796875 111.910156 " fill-opacity="1" fill-rule="nonzero"/><path fill="#1e2792" d="M 1038.765625 128.957031 C 1023.492188 130.9375 1008.15625 131.960938 992.757812 132.027344 C 990.816406 130.691406 987.625 129.453125 985.683594 128.117188 C 979.207031 127.894531 966.789062 127.855469 962.160156 125.46875 C 955.691406 125.058594 943.074219 124.324219 936.335938 124.417969 C 939.003906 121.722656 942.050781 119.566406 945.480469 117.953125 C 948.167969 117.835938 950.097656 117.890625 952.828125 117.773438 C 957.195312 112.195312 961.226562 106.917969 965.539062 101.347656 C 968.378906 101.097656 971.21875 101.0625 974.0625 101.242188 C 974.652344 102.292969 974.976562 103.597656 975.574219 104.648438 C 976.496094 104.710938 977.671875 104.898438 978.628906 104.960938 C 982.382812 100.167969 985.878906 95.195312 989.117188 90.039062 C 994.5 89.828125 998.699219 89.636719 1004.09375 89.890625 C 1004.914062 95.019531 1005.492188 100.242188 1006.308594 105.351562 C 1010.445312 105.351562 1014.621094 105.519531 1018.757812 105.519531 C 1021.238281 109.554688 1023.484375 113.714844 1025.488281 118.007812 C 1026.746094 118.007812 1028.113281 117.816406 1029.382812 117.816406 C 1032.457031 121.507812 1035.722656 125.269531 1038.765625 128.957031 Z M 1038.765625 128.957031 " fill-opacity="1" fill-rule="nonzero"/><path fill="#353bab" d="M 977.328125 121.621094 C 971.742188 121.683594 965.855469 121.769531 960.320312 122.292969 C 959.703125 123.328125 959.003906 124.308594 958.222656 125.226562 C 952.5 124.890625 941.929688 124.332031 936.324219 124.460938 C 938.992188 121.761719 942.039062 119.609375 945.46875 117.996094 C 948.15625 117.878906 950.085938 117.933594 952.816406 117.816406 C 957.183594 112.234375 961.214844 106.960938 965.527344 101.390625 C 967.871094 101.183594 970.214844 101.125 972.5625 101.210938 C 970.410156 106.097656 968.667969 110.734375 966.472656 115.664062 C 968.902344 113.5 971.089844 111.117188 973.042969 108.515625 C 973.894531 108.671875 975.425781 108.515625 976.277344 108.664062 C 973.804688 112.75 971.042969 116.628906 967.996094 120.308594 C 971.101562 120.726562 974.199219 121.199219 977.328125 121.621094 Z M 977.328125 121.621094 " fill-opacity="1" fill-rule="nonzero"/><path fill="#353bab" d="M 1004.285156 90.824219 C 1002.992188 91.761719 1001.753906 92.707031 1000.347656 93.546875 C 999.753906 99.210938 998.570312 104.746094 996.800781 110.15625 L 994.027344 110.34375 C 993.859375 107.683594 993.417969 104.992188 993.25 102.324219 C 992.832031 102.378906 992.632812 102.324219 992.203125 102.324219 C 990.101562 107.371094 987.738281 112.394531 985.660156 117.449219 C 983.980469 117.386719 982.703125 117.5 981.023438 117.449219 C 981.757812 114.683594 982.375 112.246094 983.121094 109.480469 C 981.851562 107.765625 980.359375 106.273438 978.640625 105.003906 C 982.25 100.042969 986.050781 95.136719 989.136719 90.007812 C 994.519531 89.796875 998.71875 89.605469 1004.117188 89.859375 C 1004.1875 90.207031 1004.230469 90.519531 1004.285156 90.824219 Z M 1004.285156 90.824219 " fill-opacity="1" fill-rule="nonzero"/><path fill="#353bab" d="M 1007.421875 123.304688 C 1008.933594 123.691406 1010.71875 124.101562 1012.230469 124.492188 C 1008.261719 125.140625 1004.484375 125.625 1000.515625 126.277344 C 999.4375 128.308594 998.1875 130.21875 996.757812 132.015625 L 992.757812 132.015625 C 990.816406 130.679688 987.625 129.441406 985.683594 128.105469 L 985.546875 128.105469 C 987.316406 125.164062 989.378906 122.445312 991.738281 119.949219 C 994.4375 119.71875 996.894531 119.539062 999.589844 119.308594 C 1001.878906 114.675781 1000.863281 108.628906 1006.300781 105.015625 C 1006.300781 105.121094 1006.300781 105.234375 1006.300781 105.339844 C 1010.433594 105.339844 1014.613281 105.507812 1018.75 105.507812 L 1018.917969 105.78125 C 1016.929688 106.753906 1014.890625 107.601562 1012.796875 108.316406 C 1011.746094 112.089844 1010.695312 115.671875 1009.648438 119.5 C 1013.269531 119.835938 1016.902344 120.339844 1020.53125 120.675781 C 1016.230469 120.824219 1012.136719 121.316406 1007.882812 121.464844 C 1007.589844 122.03125 1007.757812 122.757812 1007.421875 123.304688 Z M 1007.421875 123.304688 " fill-opacity="1" fill-rule="nonzero"/><path fill="#65aaff" d="M 978.902344 104.605469 C 981.933594 99.601562 985.945312 94.839844 988.90625 89.804688 C 993.964844 89.617188 999.097656 89.28125 1004.136719 89.890625 C 999.140625 89.996094 994.175781 90.058594 989.179688 90.289062 L 989.503906 90.132812 C 986.3125 95.0625 983.226562 100.066406 978.902344 104.605469 Z M 978.902344 104.605469 " fill-opacity="1" fill-rule="nonzero"/><path fill="#65aaff" d="M 936.335938 124.460938 C 938.832031 121.542969 941.835938 119.304688 945.34375 117.742188 C 947.832031 117.628906 950.320312 117.667969 952.773438 117.566406 L 952.46875 117.691406 L 965.277344 101.136719 C 967.699219 101.003906 970.121094 101.027344 972.539062 101.199219 C 970.203125 101.207031 967.871094 101.347656 965.550781 101.621094 L 965.84375 101.484375 L 953.039062 118.039062 C 950.507812 118.164062 947.988281 118.121094 945.5 118.226562 L 945.699219 118.175781 C 942.300781 119.855469 939.179688 121.949219 936.335938 124.460938 Z M 936.335938 124.460938 " fill-opacity="1" fill-rule="nonzero"/><path fill="#65aaff" d="M 985.546875 128.117188 C 987.046875 124.96875 989.035156 122.164062 991.507812 119.707031 L 999.539062 119.058594 L 999.222656 119.246094 C 1001.21875 115.292969 1000.808594 107.570312 1006.300781 105.003906 C 1001.753906 108.261719 1001.871094 115.398438 999.894531 119.519531 L 999.632812 119.519531 L 991.78125 120.160156 L 992.054688 120.046875 C 989.652344 122.683594 987.636719 125.40625 985.546875 128.117188 Z M 985.546875 128.117188 " fill-opacity="1" fill-rule="nonzero"/><path fill="#65aaff" d="M 944.839844 118.132812 L 954.644531 119.128906 C 954.003906 119.089844 945.152344 117.742188 944.839844 118.132812 Z M 944.839844 118.132812 " fill-opacity="1" fill-rule="nonzero"/><path fill="#65aaff" d="M 991.464844 120.476562 L 998.382812 123.722656 L 1006.308594 123.722656 L 998.445312 123.21875 L 991.738281 119.960938 Z M 991.464844 120.476562 " fill-opacity="1" fill-rule="nonzero"/></svg>